<svg xmlns="http://www.w3.org/2000/svg" xml:space="preserve" id="Layer_1" x="0" y="0" version="1.1" viewBox="0 0 689.3 277.3"><style>.st0{fill:#584194}.st4{fill:#4f4f4f}.st15{display:inline}.st16{fill:gray}.st18{fill:#666}.st28{fill:#333}</style><path d="M99.6 180c-8.7 4.6-19.6 6.9-32.6 6.9-16.8 0-30.2-5.4-40.3-16.2s-15.1-25-15.1-42.5c0-18.9 5.7-34.1 17-45.7q16.95-17.4 43.2-17.4c11.2 0 20.4 1.6 27.8 4.9v14.7c-8.4-4.7-17.8-7.1-28-7.1-13.5 0-24.5 4.5-32.9 13.6s-12.6 21.1-12.6 36.3c0 14.4 3.9 25.8 11.8 34.3s18.2 12.8 31 12.8c11.8 0 22.1-2.6 30.8-7.9zM191.7 185h-13.5v-48.5c0-17.5-6.5-26.3-19.6-26.3-6.6 0-12.1 2.5-16.6 7.6s-6.7 11.6-6.7 19.5V185h-13.5V60.3h13.5v54.4h.3c6.5-10.6 15.7-16 27.6-16 19 0 28.5 11.4 28.5 34.3zM224 79.4c-2.4 0-4.5-.8-6.2-2.5-1.7-1.6-2.5-3.7-2.5-6.2s.8-4.6 2.5-6.3 3.8-2.5 6.2-2.5c2.5 0 4.6.8 6.3 2.5s2.6 3.8 2.6 6.3c0 2.4-.9 4.5-2.6 6.2-1.8 1.6-3.9 2.5-6.3 2.5m6.6 105.6h-13.5v-84.2h13.5zM271.3 185h-13.5V60.3h13.5zM370.5 185H357v-14.3h-.3c-6.2 10.9-15.9 16.3-28.9 16.3-10.6 0-19-3.8-25.4-11.3-6.3-7.5-9.5-17.8-9.5-30.8 0-13.9 3.5-25.1 10.5-33.5s16.4-12.6 28-12.6 20 4.6 25.2 13.7h.3V60.3h13.5zM357 146.9v-12.4c0-6.8-2.2-12.6-6.7-17.3s-10.2-7.1-17.1-7.1c-8.2 0-14.7 3-19.4 9s-7.1 14.4-7.1 25c0 9.7 2.3 17.4 6.8 23s10.6 8.4 18.2 8.4q11.25 0 18.3-8.1c4.7-5.4 7-12.2 7-20.5M413.4 140.4V185h-13.8V67.1H432c12.6 0 22.4 3.1 29.3 9.2s10.4 14.8 10.4 26-3.9 20.3-11.6 27.5c-7.7 7.1-18.1 10.7-31.2 10.7h-15.5zm0-60.9v48.4h14.5c9.5 0 16.8-2.2 21.8-6.5 5-4.4 7.5-10.5 7.5-18.5q0-23.4-27.6-23.4zM505.6 185h-13.5V60.3h13.5zM601 185h-13.5v-13.3h-.3c-5.6 10.2-14.3 15.3-26 15.3-20.1 0-30.1-11.9-30.1-35.9v-50.3h13.4V149c0 17.8 6.8 26.6 20.4 26.6 6.6 0 12-2.4 16.2-7.3s6.4-11.2 6.4-19v-48.5H601zM623.1 181.9v-14.5q10.95 8.1 24.3 8.1c11.8 0 17.8-3.9 17.8-11.8 0-2.2-.5-4.2-1.5-5.7-1-1.6-2.4-2.9-4.1-4.2-1.7-1.2-3.8-2.3-6.1-3.2q-3.45-1.5-7.5-3c-3.7-1.5-7-3-9.8-4.5s-5.2-3.2-7.1-5.1-3.3-4-4.3-6.5c-1-2.4-1.4-5.2-1.4-8.5q0-5.85 2.7-10.5c1.8-3 4.2-5.6 7.2-7.6 3-2.1 6.5-3.6 10.3-4.6 3.9-1 7.9-1.6 12-1.6 7.3 0 13.8 1.3 19.6 3.8v13.7c-6.2-4.1-13.3-6.1-21.4-6.1-2.5 0-4.8.3-6.8.9s-3.8 1.4-5.2 2.4c-1.5 1-2.6 2.3-3.4 3.7q-1.2 2.25-1.2 4.8c0 2.2.4 4 1.2 5.5s2 2.8 3.5 3.9c1.5 1.2 3.4 2.2 5.6 3.1q3.3 1.35 7.5 3c3.7 1.4 7.1 2.9 10 4.4 3 1.5 5.5 3.2 7.6 5.1s3.7 4.1 4.8 6.5c1.1 2.5 1.7 5.4 1.7 8.8 0 4.2-.9 7.8-2.8 10.9-1.8 3.1-4.3 5.6-7.4 7.6s-6.6 3.5-10.6 4.5q-6 1.5-12.6 1.5c-8.7.2-16.2-1.4-22.6-4.8M10.2 9.2h669v6h-669zM393.7 261v-4.5c4.1 2.6 8.2 3.9 12.4 3.9 4.4 0 7.8-.9 10.1-2.8 2.3-1.8 3.4-4.4 3.4-7.7 0-2.9-.8-5.2-2.3-7-1.5-1.7-4.9-4.1-10-7.1-5.8-3.4-9.4-6.2-10.9-8.4-1.5-2.3-2.3-4.9-2.3-7.8 0-4 1.6-7.4 4.7-10.2s7.3-4.2 12.5-4.2c3.4 0 6.8.6 10.1 1.7v4.1c-3.3-1.5-6.9-2.3-10.7-2.3-3.9 0-6.9 1-9.2 2.9-2.3 2-3.4 4.4-3.4 7.5 0 2.9.8 5.2 2.3 6.9s4.9 4.1 10 7c5.3 3 8.8 5.7 10.6 8s2.6 5 2.6 8.1c0 4.4-1.5 7.9-4.5 10.7-3 2.7-7.3 4.1-12.8 4.1-2 0-4.2-.3-6.8-.9-2.5-.5-4.5-1.2-5.8-2M451.3 264c-5.9 0-10.6-1.9-14.1-5.8-3.4-3.9-5.2-9-5.2-15.2 0-6.7 1.8-12 5.4-15.8s8.4-5.7 14.3-5.7c5.8 0 10.4 1.9 13.7 5.7 3.4 3.8 5 9 5 15.7q0 9.45-5.1 15.3c-3.4 3.9-8.1 5.8-14 5.8m.3-39.2q-7.2 0-11.4 4.8c-2.8 3.2-4.3 7.7-4.3 13.4 0 5.3 1.4 9.6 4.2 12.8q4.2 4.8 11.4 4.8c4.9 0 8.7-1.6 11.3-4.8s4-7.6 4-13.2c0-5.8-1.3-10.2-3.9-13.3-2.8-3-6.5-4.5-11.3-4.5M496.1 206.8c-1-.8-2.5-1.1-4.4-1.1-5 0-7.5 3.4-7.5 10.1v6.7h10.7v3.3h-10.7v37.3h-3.6v-37.3h-7.3v-3.3h7.3v-7.1c0-4.3 1.1-7.5 3.2-9.8 2.2-2.2 4.8-3.3 8.1-3.3 1.7 0 3.1.3 4.3.8v3.7zM519 262.5c-1.9.9-3.7 1.3-5.4 1.3q-9 0-9-10.8v-27.3h-7.3v-3.3h7.3v-10.5l1.8-.6 1.8-.6v11.8H519v3.3h-10.7v26.8c0 2.8.4 4.8 1.3 6.1s2.4 1.9 4.5 1.9c1.5 0 3.1-.5 4.9-1.5zM561.5 263h-3.4l-8.8-30.6c-.2-.8-.4-2-.6-3.4h-.2c-.1.6-.3 1.7-.8 3.3l-9.9 30.7h-3.4L522 222.4h4l9.4 32.4c.2.8.4 2 .6 3.4h.3c.1-.8.3-1.9.8-3.4l10.3-32.4h2.5l9.2 32.4c.2.8.4 1.9.6 3.4h.3c0-.8.2-1.9.7-3.4l9.6-32.4h3.8zM606.3 263v-8.1h-.2c-1.3 2.8-3.2 5-5.6 6.6-2.5 1.7-5.2 2.5-8.2 2.5-3.9 0-6.9-1.1-9.2-3.3-2.2-2.2-3.4-4.9-3.4-8.2 0-7.1 4.7-11.4 14.1-12.8l12.5-1.9c0-8.7-3.3-13.1-9.8-13.1-4.5 0-8.8 1.8-13 5.4v-4.4c1.5-1.2 3.5-2.2 6.1-3.1 2.6-.8 5-1.3 7.3-1.3 4.2 0 7.4 1.3 9.7 3.9s3.4 6.4 3.4 11.3v26.4h-3.7zm-11.2-20.2c-4.3.6-7.2 1.6-9 3-1.7 1.4-2.6 3.6-2.6 6.6 0 2.4.8 4.4 2.4 5.9 1.6 1.6 3.8 2.3 6.7 2.3 3.9 0 7.2-1.4 9.8-4.3s3.9-6.6 3.9-11.2v-4zM641.3 226.2c-1.2-.9-2.6-1.3-4.3-1.3-3.2 0-5.9 1.7-8 5q-3.3 4.95-3.3 14.1v19h-3.6v-40.6h3.6v9h.2c.9-3.1 2.4-5.5 4.4-7.2s4.3-2.6 7-2.6c1.5 0 2.9.2 4 .7zM648.2 242.9c0 5.6 1.3 9.9 3.9 13.1 2.6 3.1 6.1 4.7 10.6 4.7s9-1.7 13.3-5v3.9q-6.3 4.5-14.1 4.5c-5.2 0-9.5-1.9-12.7-5.6q-4.8-5.7-4.8-15.9 0-8.85 5.1-15c3.4-4.1 7.8-6.1 13.1-6.1 5 0 8.9 1.8 11.6 5.3s4 8.4 4 14.5v1.6zm26.2-3.3c-.2-4.7-1.3-8.3-3.4-10.9s-5-3.9-8.6-3.9c-3.8 0-7 1.3-9.5 3.8-2.5 2.6-4 6.2-4.6 11zM521 262.2l-2-3.1v3.4M537.7 263h-3.4l1.9 3.2M561.5 263h-3.4l2 3.2" class="st0"/><path d="m606.3 263 1.9 3.2h3.7l-2-3.2zM10 239.3h358.7v6H10z" class="st0"/></svg>