<?xml version="1.0" encoding="utf-8"?>
<!-- Generator: Adobe Illustrator 21.0.0, SVG Export Plug-In . SVG Version: 6.00 Build 0)  -->
<svg version="1.1" id="Layer_1" xmlns="http://www.w3.org/2000/svg" xmlns:xlink="http://www.w3.org/1999/xlink" x="0px" y="0px"
	 viewBox="0 0 689.3 277.3" style="enable-background:new 0 0 689.3 277.3;" xml:space="preserve">
<style type="text/css">
	.st0{fill:#584194;}
	.st1{display:none;opacity:0.74;}
	.st2{display:inline;opacity:0.73;}
	.st3{opacity:0.18;}
	.st4{fill:#4F4F4F;}
	.st5{fill:url(#SVGID_1_);}
	.st6{fill:url(#SVGID_2_);}
	.st7{fill:url(#SVGID_3_);}
	.st8{fill:url(#SVGID_4_);}
	.st9{fill:url(#SVGID_5_);}
	.st10{fill:url(#SVGID_6_);}
	.st11{fill:url(#SVGID_7_);}
	.st12{fill:url(#SVGID_8_);}
	.st13{fill:url(#SVGID_9_);}
	.st14{fill:none;}
	.st15{display:inline;}
	.st16{fill:#808080;}
	.st17{fill:url(#SVGID_10_);}
	.st18{fill:#666666;}
	.st19{fill:url(#SVGID_11_);}
	.st20{fill:url(#SVGID_12_);}
	.st21{fill:url(#SVGID_13_);}
	.st22{fill:url(#SVGID_14_);}
	.st23{fill:url(#SVGID_15_);}
	.st24{fill:url(#SVGID_16_);}
	.st25{fill:url(#SVGID_17_);}
	.st26{fill:url(#SVGID_18_);}
	.st27{fill:url(#SVGID_19_);}
	.st28{fill:#333333;}
</style>
<g>
	<g>
		<g>
			<g>
				<path class="st0" d="M99.6,180c-8.7,4.6-19.6,6.9-32.6,6.9c-16.8,0-30.2-5.4-40.3-16.2c-10.1-10.8-15.1-25-15.1-42.5
					c0-18.9,5.7-34.1,17-45.7c11.3-11.6,25.7-17.4,43.2-17.4c11.2,0,20.4,1.6,27.8,4.9l0,14.7c-8.4-4.7-17.8-7.1-28-7.1
					c-13.5,0-24.5,4.5-32.9,13.6s-12.6,21.1-12.6,36.3c0,14.4,3.9,25.8,11.8,34.3c7.9,8.5,18.2,12.8,31,12.8
					c11.8,0,22.1-2.6,30.8-7.9L99.6,180z"/>
				<path class="st0" d="M191.7,185h-13.5l0-48.5c0-17.5-6.5-26.3-19.6-26.3c-6.6,0-12.1,2.5-16.6,7.6c-4.5,5.1-6.7,11.6-6.7,19.5
					l0,47.7h-13.5l0-124.7l13.5,0l0,54.4h0.3c6.5-10.6,15.7-16,27.6-16c19,0,28.5,11.4,28.5,34.3L191.7,185z"/>
				<path class="st0" d="M224,79.4c-2.4,0-4.5-0.8-6.2-2.5c-1.7-1.6-2.5-3.7-2.5-6.2c0-2.5,0.8-4.6,2.5-6.3c1.7-1.7,3.8-2.5,6.2-2.5
					c2.5,0,4.6,0.8,6.3,2.5c1.7,1.7,2.6,3.8,2.6,6.3c0,2.4-0.9,4.5-2.6,6.2C228.5,78.5,226.4,79.4,224,79.4z M230.6,185h-13.5
					l0-84.2h13.5L230.6,185z"/>
				<path class="st0" d="M271.3,185h-13.5l0-124.7l13.5,0L271.3,185z"/>
				<path class="st0" d="M370.5,185l-13.5,0v-14.3h-0.3c-6.2,10.9-15.9,16.3-28.9,16.3c-10.6,0-19-3.8-25.4-11.3
					c-6.3-7.5-9.5-17.8-9.5-30.8c0-13.9,3.5-25.1,10.5-33.5c7-8.4,16.4-12.6,28-12.6c11.6,0,20,4.6,25.2,13.7h0.3V60.3l13.5,0
					L370.5,185z M357,146.9v-12.4c0-6.8-2.2-12.6-6.7-17.3c-4.5-4.7-10.2-7.1-17.1-7.1c-8.2,0-14.7,3-19.4,9c-4.7,6-7.1,14.4-7.1,25
					c0,9.7,2.3,17.4,6.8,23c4.5,5.6,10.6,8.4,18.2,8.4c7.5,0,13.6-2.7,18.3-8.1C354.7,162,357,155.2,357,146.9z"/>
				<path class="st0" d="M413.4,140.4l0,44.6l-13.8,0l0-117.9l32.4,0c12.6,0,22.4,3.1,29.3,9.2c6.9,6.1,10.4,14.8,10.4,26
					c0,11.2-3.9,20.3-11.6,27.5c-7.7,7.1-18.1,10.7-31.2,10.7H413.4z M413.4,79.5l0,48.4l14.5,0c9.5,0,16.8-2.2,21.8-6.5
					c5-4.4,7.5-10.5,7.5-18.5c0-15.6-9.2-23.4-27.6-23.4L413.4,79.5z"/>
				<path class="st0" d="M505.6,185l-13.5,0l0-124.7l13.5,0L505.6,185z"/>
				<path class="st0" d="M601,185l-13.5,0v-13.3h-0.3c-5.6,10.2-14.3,15.3-26,15.3c-20.1,0-30.1-11.9-30.1-35.9v-50.3l13.4,0V149
					c0,17.8,6.8,26.6,20.4,26.6c6.6,0,12-2.4,16.2-7.3c4.2-4.9,6.4-11.2,6.4-19l0-48.5l13.5,0V185z"/>
				<path class="st0" d="M623.1,181.9v-14.5c7.3,5.4,15.4,8.1,24.3,8.1c11.8,0,17.8-3.9,17.8-11.8c0-2.2-0.5-4.2-1.5-5.7
					c-1-1.6-2.4-2.9-4.1-4.2c-1.7-1.2-3.8-2.3-6.1-3.2c-2.3-1-4.8-2-7.5-3c-3.7-1.5-7-3-9.8-4.5c-2.8-1.5-5.2-3.2-7.1-5.1
					c-1.9-1.9-3.3-4-4.3-6.5c-1-2.4-1.4-5.2-1.4-8.5c0-3.9,0.9-7.4,2.7-10.5c1.8-3,4.2-5.6,7.2-7.6c3-2.1,6.5-3.6,10.3-4.6
					c3.9-1,7.9-1.6,12-1.6c7.3,0,13.8,1.3,19.6,3.8v13.7c-6.2-4.1-13.3-6.1-21.4-6.1c-2.5,0-4.8,0.3-6.8,0.9c-2,0.6-3.8,1.4-5.2,2.4
					c-1.5,1-2.6,2.3-3.4,3.7c-0.8,1.5-1.2,3.1-1.2,4.8c0,2.2,0.4,4,1.2,5.5c0.8,1.5,2,2.8,3.5,3.9c1.5,1.2,3.4,2.2,5.6,3.1
					c2.2,0.9,4.7,1.9,7.5,3c3.7,1.4,7.1,2.9,10,4.4c3,1.5,5.5,3.2,7.6,5.1c2.1,1.9,3.7,4.1,4.8,6.5c1.1,2.5,1.7,5.4,1.7,8.8
					c0,4.2-0.9,7.8-2.8,10.9c-1.8,3.1-4.3,5.6-7.4,7.6c-3.1,2-6.6,3.5-10.6,4.5c-4,1-8.2,1.5-12.6,1.5
					C637,186.9,629.5,185.3,623.1,181.9z"/>
			</g>
		</g>
	</g>
	<g>
		<rect x="10.2" y="9.2" class="st0" width="669" height="6"/>
	</g>
	<g>
		<g>
			<path class="st0" d="M393.7,261v-4.5c4.1,2.6,8.2,3.9,12.4,3.9c4.4,0,7.8-0.9,10.1-2.8c2.3-1.8,3.4-4.4,3.4-7.7
				c0-2.9-0.8-5.2-2.3-7c-1.5-1.7-4.9-4.1-10-7.1c-5.8-3.4-9.4-6.2-10.9-8.4c-1.5-2.3-2.3-4.9-2.3-7.8c0-4,1.6-7.4,4.7-10.2
				c3.1-2.8,7.3-4.2,12.5-4.2c3.4,0,6.8,0.6,10.1,1.7v4.1c-3.3-1.5-6.9-2.3-10.7-2.3c-3.9,0-6.9,1-9.2,2.9c-2.3,2-3.4,4.4-3.4,7.5
				c0,2.9,0.8,5.2,2.3,6.9c1.5,1.7,4.9,4.1,10,7c5.3,3,8.8,5.7,10.6,8c1.8,2.3,2.6,5,2.6,8.1c0,4.4-1.5,7.9-4.5,10.7
				c-3,2.7-7.3,4.1-12.8,4.1c-2,0-4.2-0.3-6.8-0.9C397,262.5,395,261.8,393.7,261z"/>
			<path class="st0" d="M451.3,264c-5.9,0-10.6-1.9-14.1-5.8c-3.4-3.9-5.2-9-5.2-15.2c0-6.7,1.8-12,5.4-15.8
				c3.6-3.8,8.4-5.7,14.3-5.7c5.8,0,10.4,1.9,13.7,5.7c3.4,3.8,5,9,5,15.7c0,6.3-1.7,11.4-5.1,15.3C461.9,262.1,457.2,264,451.3,264
				z M451.6,224.8c-4.8,0-8.6,1.6-11.4,4.8c-2.8,3.2-4.3,7.7-4.3,13.4c0,5.3,1.4,9.6,4.2,12.8c2.8,3.2,6.6,4.8,11.4,4.8
				c4.9,0,8.7-1.6,11.3-4.8c2.6-3.2,4-7.6,4-13.2c0-5.8-1.3-10.2-3.9-13.3C460.1,226.3,456.4,224.8,451.6,224.8z"/>
			<path class="st0" d="M496.1,206.8c-1-0.8-2.5-1.1-4.4-1.1c-5,0-7.5,3.4-7.5,10.1v6.7h10.7l0,3.3h-10.7l0,37.3h-3.6v-37.3l-7.3,0
				v-3.3l7.3,0v-7.1c0-4.3,1.1-7.5,3.2-9.8c2.2-2.2,4.8-3.3,8.1-3.3c1.7,0,3.1,0.3,4.3,0.8V206.8z"/>
			<path class="st0" d="M519,262.5c-1.9,0.9-3.7,1.3-5.4,1.3c-6,0-9-3.6-9-10.8l0-27.3l-7.3,0v-3.3h7.3v-10.5
				c0.6-0.2,1.2-0.4,1.8-0.6c0.6-0.2,1.2-0.4,1.8-0.6v11.8H519v3.3h-10.7v26.8c0,2.8,0.4,4.8,1.3,6.1c0.9,1.3,2.4,1.9,4.5,1.9
				c1.5,0,3.1-0.5,4.9-1.5V262.5z"/>
			<path class="st0" d="M561.5,263h-3.4l-8.8-30.6c-0.2-0.8-0.4-2-0.6-3.4h-0.2c-0.1,0.6-0.3,1.7-0.8,3.3l-9.9,30.7h-3.4L522,222.4
				h4l9.4,32.4c0.2,0.8,0.4,2,0.6,3.4h0.3c0.1-0.8,0.3-1.9,0.8-3.4l10.3-32.4h2.5l9.2,32.4c0.2,0.8,0.4,1.9,0.6,3.4h0.3
				c0-0.8,0.2-1.9,0.7-3.4l9.6-32.4h3.8L561.5,263z"/>
			<path class="st0" d="M606.3,263v-8.1h-0.2c-1.3,2.8-3.2,5-5.6,6.6c-2.5,1.7-5.2,2.5-8.2,2.5c-3.9,0-6.9-1.1-9.2-3.3
				c-2.2-2.2-3.4-4.9-3.4-8.2c0-7.1,4.7-11.4,14.1-12.8l12.5-1.9c0-8.7-3.3-13.1-9.8-13.1c-4.5,0-8.8,1.8-13,5.4v-4.4
				c1.5-1.2,3.5-2.2,6.1-3.1c2.6-0.8,5-1.3,7.3-1.3c4.2,0,7.4,1.3,9.7,3.9c2.3,2.6,3.4,6.4,3.4,11.3l0,26.4H606.3z M595.1,242.8
				c-4.3,0.6-7.2,1.6-9,3c-1.7,1.4-2.6,3.6-2.6,6.6c0,2.4,0.8,4.4,2.4,5.9c1.6,1.6,3.8,2.3,6.7,2.3c3.9,0,7.2-1.4,9.8-4.3
				c2.6-2.9,3.9-6.6,3.9-11.2v-4L595.1,242.8z"/>
			<path class="st0" d="M641.3,226.2c-1.2-0.9-2.6-1.3-4.3-1.3c-3.2,0-5.9,1.7-8,5c-2.2,3.3-3.3,8-3.3,14.1V263h-3.6l0-40.6h3.6v9
				h0.2c0.9-3.1,2.4-5.5,4.4-7.2c2-1.7,4.3-2.6,7-2.6c1.5,0,2.9,0.2,4,0.7V226.2z"/>
			<path class="st0" d="M648.2,242.9c0,5.6,1.3,9.9,3.9,13.1c2.6,3.1,6.1,4.7,10.6,4.7c4.5,0,9-1.7,13.3-5v3.9
				c-4.2,3-8.9,4.5-14.1,4.5c-5.2,0-9.5-1.9-12.7-5.6c-3.2-3.8-4.8-9.1-4.8-15.9c0-5.9,1.7-10.9,5.1-15c3.4-4.1,7.8-6.1,13.1-6.1
				c5,0,8.9,1.8,11.6,5.3c2.7,3.5,4,8.4,4,14.5v1.6L648.2,242.9z M674.4,239.6c-0.2-4.7-1.3-8.3-3.4-10.9c-2.1-2.6-5-3.9-8.6-3.9
				c-3.8,0-7,1.3-9.5,3.8c-2.5,2.6-4,6.2-4.6,11L674.4,239.6z"/>
		</g>
		<polyline class="st0" points="521,262.2 519,259.1 519,262.5 		"/>
		<polyline class="st0" points="537.7,263 534.3,263 536.2,266.2 		"/>
		<polyline class="st0" points="561.5,263 558.1,263 560.1,266.2 		"/>
		<polygon class="st0" points="606.3,263 608.2,266.2 611.9,266.2 609.9,263 		"/>
	</g>
	<rect x="10" y="239.3" class="st0" width="358.7" height="6"/>
</g>
<g class="st1">
	<g class="st2">
		<g>
			<g class="st3">
				<path d="M92.6,183.4c-8.7,4.6-19.6,6.9-32.6,7c-16.8,0-30.2-5.4-40.3-16.1C9.6,163.5,4.5,149.3,4.5,131.8
					c0-18.9,5.6-34.1,17-45.7c11.3-11.6,25.7-17.5,43.1-17.5c11.2,0,20.4,1.6,27.8,4.8l0,14.7c-8.4-4.7-17.8-7-28-7
					C50.9,81,40,85.6,31.6,94.6S19,115.8,19,130.9c0,14.4,4,25.8,11.8,34.3c7.9,8.5,18.2,12.8,31,12.7c11.8,0,22.1-2.7,30.7-7.9
					L92.6,183.4z"/>
				<path d="M184.7,188.3l-13.5,0l-0.1-48.5c0-17.5-6.6-26.3-19.6-26.3c-6.6,0-12.1,2.6-16.6,7.6c-4.5,5.1-6.7,11.6-6.7,19.5
					l0.1,47.7l-13.5,0l-0.2-124.7l13.5,0l0.1,54.4l0.3,0c6.5-10.6,15.7-16,27.6-16c19,0,28.5,11.4,28.5,34.3L184.7,188.3z"/>
				<path d="M216.9,82.6c-2.4,0-4.5-0.8-6.2-2.5s-2.6-3.7-2.6-6.2c0-2.5,0.8-4.6,2.5-6.3c1.7-1.7,3.8-2.5,6.2-2.5
					c2.5,0,4.6,0.8,6.3,2.5c1.7,1.7,2.6,3.8,2.6,6.3c0,2.4-0.9,4.5-2.6,6.2C221.4,81.8,219.3,82.6,216.9,82.6z M223.6,188.2l-13.5,0
					L210,104l13.5,0L223.6,188.2z"/>
				<path d="M264.4,188.1l-13.5,0l-0.2-124.7l13.5,0L264.4,188.1z"/>
				<path d="M363.5,188l-13.5,0l0-14.3l-0.3,0c-6.2,10.9-15.9,16.3-28.9,16.3c-10.6,0-19-3.7-25.4-11.3c-6.3-7.5-9.5-17.8-9.5-30.8
					c0-13.9,3.5-25.1,10.5-33.5c7-8.4,16.3-12.6,28-12.6c11.6,0,20,4.5,25.3,13.6l0.3,0l-0.1-52.1l13.5,0L363.5,188z M350,150
					l0-12.4c0-6.8-2.3-12.6-6.8-17.3c-4.5-4.7-10.2-7.1-17.1-7c-8.2,0-14.7,3-19.4,9.1c-4.7,6-7.1,14.4-7,25c0,9.7,2.3,17.4,6.8,23
					c4.5,5.6,10.6,8.4,18.2,8.4c7.5,0,13.6-2.7,18.3-8.2C347.7,165.1,350,158.2,350,150z"/>
				<path d="M406.4,143.4l0.1,44.6l-13.8,0l-0.2-117.9l32.4,0c12.6,0,22.4,3,29.3,9.2c6.9,6.1,10.4,14.8,10.4,26
					c0,11.2-3.8,20.3-11.5,27.5c-7.7,7.1-18.1,10.7-31.2,10.7L406.4,143.4z M406.3,82.5l0.1,48.4l14.5,0c9.5,0,16.8-2.2,21.8-6.6
					c5-4.4,7.5-10.5,7.5-18.5c0-15.6-9.2-23.3-27.7-23.3L406.3,82.5z"/>
				<path d="M498.6,187.8l-13.5,0L485,63.2l13.5,0L498.6,187.8z"/>
				<path d="M594,187.7l-13.5,0l0-13.3l-0.3,0c-5.6,10.2-14.2,15.3-26,15.3c-20.1,0-30.1-11.9-30.1-35.8l-0.1-50.3l13.4,0l0.1,48.2
					c0,17.8,6.8,26.6,20.4,26.6c6.6,0,12-2.4,16.2-7.3c4.2-4.9,6.4-11.2,6.3-19l-0.1-48.5l13.5,0L594,187.7z"/>
				<path d="M616.1,184.6l0-14.5c7.4,5.4,15.4,8.1,24.3,8.1c11.8,0,17.8-4,17.7-11.9c0-2.2-0.5-4.2-1.5-5.7c-1-1.6-2.4-2.9-4.1-4.1
					c-1.7-1.2-3.8-2.3-6.1-3.2c-2.3-1-4.8-2-7.5-3c-3.7-1.5-7-3-9.8-4.5c-2.8-1.5-5.2-3.2-7.1-5.1c-1.9-1.9-3.3-4-4.3-6.4
					c-1-2.4-1.4-5.2-1.5-8.5c0-3.9,0.9-7.4,2.7-10.5c1.8-3,4.2-5.6,7.2-7.7c3-2.1,6.5-3.6,10.3-4.7c3.9-1,7.9-1.6,12-1.6
					c7.3,0,13.8,1.2,19.6,3.8l0,13.7c-6.2-4-13.3-6.1-21.4-6.1c-2.5,0-4.8,0.3-6.8,0.9c-2,0.6-3.8,1.4-5.2,2.4
					c-1.5,1-2.6,2.3-3.4,3.7c-0.8,1.5-1.2,3.1-1.2,4.8c0,2.2,0.4,4,1.2,5.5c0.8,1.5,2,2.8,3.5,3.9c1.5,1.1,3.4,2.2,5.6,3.1
					c2.2,0.9,4.7,1.9,7.5,3c3.7,1.4,7.1,2.9,10,4.4c3,1.5,5.5,3.2,7.6,5.1c2.1,1.9,3.7,4.1,4.8,6.5c1.1,2.5,1.7,5.4,1.7,8.8
					c0,4.2-0.9,7.8-2.7,10.9c-1.8,3.1-4.3,5.6-7.3,7.7c-3.1,2-6.6,3.5-10.6,4.5c-4,1-8.2,1.5-12.6,1.5
					C630,189.6,622.5,188,616.1,184.6z"/>
			</g>
			<g>
				<path class="st4" d="M91.9,177.8c-8.7,4.6-19.6,6.9-32.6,7c-16.8,0-30.2-5.4-40.3-16.1C8.9,157.8,3.9,143.7,3.9,126.1
					c0-18.9,5.6-34.1,17-45.7C32.2,68.7,46.5,62.9,64,62.9c11.2,0,20.4,1.6,27.8,4.8l0,14.7c-8.4-4.7-17.8-7-28-7
					c-13.5,0-24.5,4.6-32.9,13.6s-12.6,21.2-12.6,36.3c0,14.4,4,25.8,11.8,34.3c7.9,8.5,18.2,12.8,31,12.7c11.8,0,22.1-2.7,30.7-7.9
					L91.9,177.8z"/>
				<path class="st4" d="M184,182.6l-13.5,0l-0.1-48.5c0-17.5-6.6-26.3-19.6-26.3c-6.6,0-12.1,2.6-16.6,7.6
					c-4.5,5.1-6.7,11.6-6.7,19.5l0.1,47.7l-13.5,0l8.2-127.8l5.1,3.1l0.1,54.4l0.3,0c6.5-10.6,15.7-16,27.6-16
					c19,0,28.5,11.4,28.5,34.3L184,182.6z"/>
				<path class="st4" d="M216.2,77c-2.4,0-4.5-0.8-6.2-2.5c-1.7-1.6-2.6-3.7-2.6-6.2c0-2.5,0.8-4.6,2.5-6.3c1.7-1.7,3.8-2.5,6.2-2.5
					c2.5,0,4.6,0.8,6.3,2.5c1.7,1.7,2.6,3.8,2.6,6.3c0,2.4-0.9,4.5-2.6,6.2C220.8,76.1,218.7,77,216.2,77z M222.9,182.6l-13.5,0
					l8.3-87.4l5.1,3.1L222.9,182.6z"/>
				<path class="st4" d="M263.7,182.5l-13.5,0l8.2-127.8l5.1,3.1L263.7,182.5z"/>
				<path class="st4" d="M362.9,182.4l-13.5,0l0-14.3l-0.3,0c-6.2,10.9-15.9,16.3-28.9,16.3c-10.6,0-19-3.7-25.4-11.3
					c-6.3-7.5-9.5-17.8-9.5-30.8c0-13.9,3.5-25.1,10.5-33.5c7-8.4,16.3-12.6,28-12.6c11.6,0,20,4.5,25.3,13.6l0.3,0l8.3-55.3
					l5.1,3.1L362.9,182.4z M349.3,144.3l0-12.4c0-6.8-2.3-12.6-6.8-17.3c-4.5-4.7-10.2-7.1-17.1-7c-8.2,0-14.7,3-19.4,9.1
					c-4.7,6-7.1,14.4-7,25c0,9.7,2.3,17.4,6.8,23c4.5,5.6,10.6,8.4,18.2,8.4c7.5,0,13.6-2.7,18.3-8.2
					C347,159.4,349.4,152.6,349.3,144.3z"/>
				<path class="st4" d="M405.7,137.7l0.1,44.6l-13.8,0l-0.2-117.9l32.4,0c12.6,0,22.4,3,29.3,9.2c6.9,6.1,10.4,14.8,10.4,26
					c0,11.2-3.8,20.3-11.5,27.5c-7.7,7.1-18.1,10.7-31.2,10.7L405.7,137.7z M405.7,76.9l0.1,48.4l14.5,0c9.5,0,16.8-2.2,21.8-6.6
					c5-4.4,7.5-10.5,7.5-18.5c0-15.6-9.2-23.3-27.7-23.3L405.7,76.9z"/>
				<path class="st4" d="M498,182.2l-13.5,0l8.2-127.8l5.1,3.1L498,182.2z"/>
				<path class="st4" d="M593.4,182.1l-13.5,0l0-13.3l-0.3,0c-5.6,10.2-14.2,15.3-26,15.3c-20.1,0-30.1-11.9-30.1-35.8l8.2-53.5
					l5.1,3.1l0.1,48.2c0,17.8,6.8,26.6,20.4,26.6c6.6,0,12-2.4,16.2-7.3c4.2-4.9,6.4-11.2,6.3-19l8.3-51.7l5.1,3.1L593.4,182.1z"/>
				<path class="st4" d="M614.4,177.7l1-13.2c7.4,5.4,15.4,8.1,24.3,8.1c11.8,0,17.8-4,17.7-11.9c0-2.2-0.5-4.2-1.5-5.7
					c-1-1.6-2.4-2.9-4.1-4.1c-1.7-1.2-3.8-2.3-6.1-3.2c-2.3-1-4.8-2-7.5-3c-3.7-1.5-7-3-9.8-4.5c-2.8-1.5-5.2-3.2-7.1-5.1
					c-1.9-1.9-3.3-4-4.3-6.4c-1-2.4-1.4-5.2-1.5-8.5c0-3.9,0.9-7.4,2.7-10.5c1.8-3,4.2-5.6,7.2-7.7c3-2.1,6.5-3.6,10.3-4.7
					c3.9-1,7.9-1.6,12-1.6c7.3,0,13.8,1.2,19.6,3.8l0,13.7c-6.2-4-13.3-6.1-21.4-6.1c-2.5,0-4.8,0.3-6.8,0.9c-2,0.6-3.8,1.4-5.2,2.4
					c-1.5,1-2.6,2.3-3.4,3.7c-0.8,1.5-1.2,3.1-1.2,4.8c0,2.2,0.4,4,1.2,5.5c0.8,1.5,2,2.8,3.5,3.9c1.5,1.1,3.4,2.2,5.6,3.1
					c2.2,0.9,4.7,1.9,7.5,3c3.7,1.4,7.1,2.9,10,4.4c3,1.5,5.5,3.2,7.6,5.1c2.1,1.9,3.7,4.1,4.8,6.5c1.1,2.5,1.7,5.4,1.7,8.8
					c0,4.2-0.9,7.8-2.7,10.9c-1.8,3.1-4.3,5.6-7.3,7.7c-3.1,2-6.6,3.5-10.6,4.5c-4,1-8.2,1.5-12.6,1.5
					C629.4,184,620.8,181,614.4,177.7z"/>
			</g>
			<g>
				
					<linearGradient id="SVGID_1_" gradientUnits="userSpaceOnUse" x1="1.7317" y1="119.7223" x2="90.053" y2="119.7223" gradientTransform="matrix(1 5.101362e-03 -5.101362e-03 1 -2.3511 0.6434)">
					<stop  offset="0" style="stop-color:#717375"/>
					<stop  offset="8.043566e-02" style="stop-color:#76787A"/>
					<stop  offset="0.1739" style="stop-color:#838588"/>
					<stop  offset="0.2735" style="stop-color:#9A9C9F"/>
					<stop  offset="0.2839" style="stop-color:#9D9FA2"/>
					<stop  offset="0.3437" style="stop-color:#A0A2A5"/>
					<stop  offset="0.3942" style="stop-color:#ABADAF"/>
					<stop  offset="0.4412" style="stop-color:#BCBEC0"/>
					<stop  offset="0.4859" style="stop-color:#D5D6D7"/>
					<stop  offset="0.5" style="stop-color:#DEDFE0"/>
					<stop  offset="0.5413" style="stop-color:#C9CBCC"/>
					<stop  offset="0.6028" style="stop-color:#B1B3B5"/>
					<stop  offset="0.6594" style="stop-color:#A2A4A7"/>
					<stop  offset="0.706" style="stop-color:#9D9FA2"/>
					<stop  offset="0.717" style="stop-color:#95979A"/>
					<stop  offset="0.749" style="stop-color:#858789"/>
					<stop  offset="0.7889" style="stop-color:#797B7E"/>
					<stop  offset="0.8448" style="stop-color:#737577"/>
					<stop  offset="1" style="stop-color:#717375"/>
				</linearGradient>
				<path class="st5" d="M86.8,174.7c-8.7,4.6-19.6,6.9-32.6,7c-16.8,0-30.2-5.4-40.3-16.1C3.8,154.7-1.2,140.5-1.2,123
					c0-18.9,5.6-34.1,17-45.7c11.3-11.6,25.7-17.5,43.1-17.5c11.2,0,20.4,1.6,27.8,4.8l0,14.7c-8.4-4.7-17.8-7-28-7
					c-13.5,0-24.5,4.6-32.9,13.6S13.2,107,13.2,122.1c0,14.4,4,25.8,11.8,34.3c7.9,8.5,18.2,12.8,31,12.7c11.8,0,22.1-2.7,30.7-7.9
					L86.8,174.7z"/>
				
					<linearGradient id="SVGID_2_" gradientUnits="userSpaceOnUse" x1="111.4829" y1="115.9701" x2="182.1817" y2="115.9701" gradientTransform="matrix(1 5.101362e-03 -5.101362e-03 1 -2.3511 0.6434)">
					<stop  offset="0" style="stop-color:#717375"/>
					<stop  offset="8.043566e-02" style="stop-color:#76787A"/>
					<stop  offset="0.1739" style="stop-color:#838588"/>
					<stop  offset="0.2735" style="stop-color:#9A9C9F"/>
					<stop  offset="0.2839" style="stop-color:#9D9FA2"/>
					<stop  offset="0.3437" style="stop-color:#A0A2A5"/>
					<stop  offset="0.3942" style="stop-color:#ABADAF"/>
					<stop  offset="0.4412" style="stop-color:#BCBEC0"/>
					<stop  offset="0.4859" style="stop-color:#D5D6D7"/>
					<stop  offset="0.5" style="stop-color:#DEDFE0"/>
					<stop  offset="0.5413" style="stop-color:#C9CBCC"/>
					<stop  offset="0.6028" style="stop-color:#B1B3B5"/>
					<stop  offset="0.6594" style="stop-color:#A2A4A7"/>
					<stop  offset="0.706" style="stop-color:#9D9FA2"/>
					<stop  offset="0.717" style="stop-color:#95979A"/>
					<stop  offset="0.749" style="stop-color:#858789"/>
					<stop  offset="0.7889" style="stop-color:#797B7E"/>
					<stop  offset="0.8448" style="stop-color:#737577"/>
					<stop  offset="1" style="stop-color:#717375"/>
				</linearGradient>
				<path class="st6" d="M178.9,179.5l-13.5,0l-0.1-48.5c0-17.5-6.6-26.3-19.6-26.3c-6.6,0-12.1,2.6-16.6,7.6
					c-4.5,5.1-6.7,11.6-6.7,19.5l0.1,47.7l-13.5,0l-0.2-124.7l13.5,0l0.1,54.4l0.3,0c6.5-10.6,15.7-16,27.6-16
					c19,0,28.5,11.4,28.5,34.3L178.9,179.5z"/>
				
					<linearGradient id="SVGID_3_" gradientUnits="userSpaceOnUse" x1="205.0441" y1="116.1577" x2="222.6414" y2="116.1577" gradientTransform="matrix(1 5.101362e-03 -5.101362e-03 1 -2.3511 0.6434)">
					<stop  offset="0" style="stop-color:#717375"/>
					<stop  offset="0.163" style="stop-color:#76787A"/>
					<stop  offset="0.3524" style="stop-color:#838588"/>
					<stop  offset="0.5544" style="stop-color:#9A9C9F"/>
					<stop  offset="0.5754" style="stop-color:#9D9FA2"/>
					<stop  offset="0.7131" style="stop-color:#9A9C9F"/>
					<stop  offset="0.8294" style="stop-color:#909294"/>
					<stop  offset="0.9374" style="stop-color:#7F8183"/>
					<stop  offset="1" style="stop-color:#717375"/>
				</linearGradient>
				<path class="st7" d="M211.1,73.8c-2.4,0-4.5-0.8-6.2-2.5c-1.7-1.6-2.6-3.7-2.6-6.2c0-2.5,0.8-4.6,2.5-6.3
					c1.7-1.7,3.8-2.5,6.2-2.5c2.5,0,4.6,0.8,6.3,2.5c1.7,1.7,2.6,3.8,2.6,6.3c0,2.4-0.9,4.5-2.6,6.2C215.7,73,213.6,73.8,211.1,73.8
					z M217.8,179.4l-13.5,0l-0.1-84.2l13.5,0L217.8,179.4z"/>
				
					<linearGradient id="SVGID_4_" gradientUnits="userSpaceOnUse" x1="247.5729" y1="115.0925" x2="261.8622" y2="115.0925" gradientTransform="matrix(1 5.101362e-03 -5.101362e-03 1 -2.3511 0.6434)">
					<stop  offset="0" style="stop-color:#717375"/>
					<stop  offset="0.2214" style="stop-color:#76787A"/>
					<stop  offset="0.4786" style="stop-color:#838588"/>
					<stop  offset="0.7529" style="stop-color:#9A9C9F"/>
					<stop  offset="0.7814" style="stop-color:#9D9FA2"/>
					<stop  offset="0.8511" style="stop-color:#9D9FA2"/>
					<stop  offset="0.8568" style="stop-color:#9D9FA2"/>
					<stop  offset="0.8968" style="stop-color:#989A9C"/>
					<stop  offset="0.9476" style="stop-color:#888A8D"/>
					<stop  offset="1" style="stop-color:#717375"/>
				</linearGradient>
				<path class="st8" d="M258.6,179.4l-13.5,0l-0.2-124.7l13.5,0L258.6,179.4z"/>
				
					<linearGradient id="SVGID_5_" gradientUnits="userSpaceOnUse" x1="283.1462" y1="115.5345" x2="361.0309" y2="115.5345" gradientTransform="matrix(1 5.101362e-03 -5.101362e-03 1 -2.3511 0.6434)">
					<stop  offset="0" style="stop-color:#717375"/>
					<stop  offset="8.043566e-02" style="stop-color:#76787A"/>
					<stop  offset="0.1739" style="stop-color:#838588"/>
					<stop  offset="0.2735" style="stop-color:#9A9C9F"/>
					<stop  offset="0.2839" style="stop-color:#9D9FA2"/>
					<stop  offset="0.3437" style="stop-color:#A0A2A5"/>
					<stop  offset="0.3942" style="stop-color:#ABADAF"/>
					<stop  offset="0.4412" style="stop-color:#BCBEC0"/>
					<stop  offset="0.4859" style="stop-color:#D5D6D7"/>
					<stop  offset="0.5" style="stop-color:#DEDFE0"/>
					<stop  offset="0.5413" style="stop-color:#C9CBCC"/>
					<stop  offset="0.6028" style="stop-color:#B1B3B5"/>
					<stop  offset="0.6594" style="stop-color:#A2A4A7"/>
					<stop  offset="0.706" style="stop-color:#9D9FA2"/>
					<stop  offset="0.717" style="stop-color:#95979A"/>
					<stop  offset="0.749" style="stop-color:#858789"/>
					<stop  offset="0.7889" style="stop-color:#797B7E"/>
					<stop  offset="0.8448" style="stop-color:#737577"/>
					<stop  offset="1" style="stop-color:#717375"/>
				</linearGradient>
				<path class="st9" d="M357.8,179.2l-13.5,0l0-14.3l-0.3,0c-6.2,10.9-15.9,16.3-28.9,16.3c-10.6,0-19-3.7-25.4-11.3
					c-6.3-7.5-9.5-17.8-9.5-30.8c0-13.9,3.5-25.1,10.5-33.5c7-8.4,16.3-12.6,28-12.6c11.6,0,20,4.5,25.3,13.6l0.3,0l-0.1-52.1
					l13.5,0L357.8,179.2z M344.2,141.2l0-12.4c0-6.8-2.3-12.6-6.8-17.3c-4.5-4.7-10.2-7.1-17.1-7c-8.2,0-14.7,3-19.4,9.1
					c-4.7,6-7.1,14.4-7,25c0,9.7,2.3,17.4,6.8,23c4.5,5.6,10.6,8.4,18.2,8.4c7.5,0,13.6-2.7,18.3-8.2
					C341.9,156.3,344.2,149.4,344.2,141.2z"/>
				
					<linearGradient id="SVGID_6_" gradientUnits="userSpaceOnUse" x1="389.3795" y1="117.4879" x2="461.7224" y2="117.4879" gradientTransform="matrix(1 5.101362e-03 -5.101362e-03 1 -2.3511 0.6434)">
					<stop  offset="0" style="stop-color:#717375"/>
					<stop  offset="8.043566e-02" style="stop-color:#76787A"/>
					<stop  offset="0.1739" style="stop-color:#838588"/>
					<stop  offset="0.2735" style="stop-color:#9A9C9F"/>
					<stop  offset="0.2839" style="stop-color:#9D9FA2"/>
					<stop  offset="0.3437" style="stop-color:#A0A2A5"/>
					<stop  offset="0.3942" style="stop-color:#ABADAF"/>
					<stop  offset="0.4412" style="stop-color:#BCBEC0"/>
					<stop  offset="0.4859" style="stop-color:#D5D6D7"/>
					<stop  offset="0.5" style="stop-color:#DEDFE0"/>
					<stop  offset="0.5413" style="stop-color:#C9CBCC"/>
					<stop  offset="0.6028" style="stop-color:#B1B3B5"/>
					<stop  offset="0.6594" style="stop-color:#A2A4A7"/>
					<stop  offset="0.706" style="stop-color:#9D9FA2"/>
					<stop  offset="0.717" style="stop-color:#95979A"/>
					<stop  offset="0.749" style="stop-color:#858789"/>
					<stop  offset="0.7889" style="stop-color:#797B7E"/>
					<stop  offset="0.8448" style="stop-color:#737577"/>
					<stop  offset="1" style="stop-color:#717375"/>
				</linearGradient>
				<path class="st10" d="M400.6,134.6l0.1,44.6l-13.8,0l-0.2-117.9l32.4,0c12.6,0,22.4,3,29.3,9.2c6.9,6.1,10.4,14.8,10.4,26
					c0,11.2-3.8,20.3-11.5,27.5c-7.7,7.1-18.1,10.7-31.2,10.7L400.6,134.6z M400.6,73.7l0.1,48.4l14.5,0c9.5,0,16.8-2.2,21.8-6.6
					c5-4.4,7.5-10.5,7.5-18.5c0-15.6-9.2-23.3-27.7-23.3L400.6,73.7z"/>
				
					<linearGradient id="SVGID_7_" gradientUnits="userSpaceOnUse" x1="481.8445" y1="113.5818" x2="496.1338" y2="113.5818" gradientTransform="matrix(1 5.101362e-03 -5.101362e-03 1 -2.3511 0.6434)">
					<stop  offset="0" style="stop-color:#717375"/>
					<stop  offset="0.1587" style="stop-color:#76787A"/>
					<stop  offset="0.3432" style="stop-color:#838588"/>
					<stop  offset="0.5398" style="stop-color:#9A9C9F"/>
					<stop  offset="0.5603" style="stop-color:#9D9FA2"/>
					<stop  offset="0.6408" style="stop-color:#A0A2A5"/>
					<stop  offset="0.7085" style="stop-color:#ABADAF"/>
					<stop  offset="0.7714" style="stop-color:#BCBEBF"/>
					<stop  offset="0.8319" style="stop-color:#9D9FA1"/>
					<stop  offset="0.8946" style="stop-color:#858789"/>
					<stop  offset="0.9524" style="stop-color:#76787A"/>
					<stop  offset="1" style="stop-color:#717375"/>
				</linearGradient>
				<path class="st11" d="M492.9,179l-13.5,0l-0.2-124.7l13.5,0L492.9,179z"/>
				
					<linearGradient id="SVGID_8_" gradientUnits="userSpaceOnUse" x1="521.0818" y1="134.2671" x2="591.5197" y2="134.2671" gradientTransform="matrix(1 5.101362e-03 -5.101362e-03 1 -2.3511 0.6434)">
					<stop  offset="0" style="stop-color:#717375"/>
					<stop  offset="8.043566e-02" style="stop-color:#76787A"/>
					<stop  offset="0.1739" style="stop-color:#838588"/>
					<stop  offset="0.2735" style="stop-color:#9A9C9F"/>
					<stop  offset="0.2839" style="stop-color:#9D9FA2"/>
					<stop  offset="0.3437" style="stop-color:#A0A2A5"/>
					<stop  offset="0.3942" style="stop-color:#ABADAF"/>
					<stop  offset="0.4412" style="stop-color:#BCBEC0"/>
					<stop  offset="0.4859" style="stop-color:#D5D6D7"/>
					<stop  offset="0.5" style="stop-color:#DEDFE0"/>
					<stop  offset="0.5413" style="stop-color:#C9CBCC"/>
					<stop  offset="0.6028" style="stop-color:#B1B3B5"/>
					<stop  offset="0.6594" style="stop-color:#A2A4A7"/>
					<stop  offset="0.706" style="stop-color:#9D9FA2"/>
					<stop  offset="0.717" style="stop-color:#95979A"/>
					<stop  offset="0.749" style="stop-color:#858789"/>
					<stop  offset="0.7889" style="stop-color:#797B7E"/>
					<stop  offset="0.8448" style="stop-color:#737577"/>
					<stop  offset="1" style="stop-color:#717375"/>
				</linearGradient>
				<path class="st12" d="M588.3,178.9l-13.5,0l0-13.3l-0.3,0c-5.6,10.2-14.2,15.3-26,15.3c-20.1,0-30.1-11.9-30.1-35.8l-0.1-50.3
					l13.4,0l0.1,48.2c0,17.8,6.8,26.6,20.4,26.6c6.6,0,12-2.4,16.2-7.3c4.2-4.9,6.4-11.2,6.3-19l-0.1-48.5l13.5,0L588.3,178.9z"/>
				
					<linearGradient id="SVGID_9_" gradientUnits="userSpaceOnUse" x1="613.4053" y1="132.8319" x2="669.329" y2="132.8319" gradientTransform="matrix(1 5.101362e-03 -5.101362e-03 1 -2.3511 0.6434)">
					<stop  offset="0" style="stop-color:#717375"/>
					<stop  offset="8.043566e-02" style="stop-color:#76787A"/>
					<stop  offset="0.1739" style="stop-color:#838588"/>
					<stop  offset="0.2735" style="stop-color:#9A9C9F"/>
					<stop  offset="0.2839" style="stop-color:#9D9FA2"/>
					<stop  offset="0.3437" style="stop-color:#A0A2A5"/>
					<stop  offset="0.3942" style="stop-color:#ABADAF"/>
					<stop  offset="0.4412" style="stop-color:#BCBEC0"/>
					<stop  offset="0.4859" style="stop-color:#D5D6D7"/>
					<stop  offset="0.5" style="stop-color:#DEDFE0"/>
					<stop  offset="0.5413" style="stop-color:#C9CBCC"/>
					<stop  offset="0.6028" style="stop-color:#B1B3B5"/>
					<stop  offset="0.6594" style="stop-color:#A2A4A7"/>
					<stop  offset="0.706" style="stop-color:#9D9FA2"/>
					<stop  offset="0.717" style="stop-color:#95979A"/>
					<stop  offset="0.749" style="stop-color:#858789"/>
					<stop  offset="0.7889" style="stop-color:#797B7E"/>
					<stop  offset="0.8448" style="stop-color:#737577"/>
					<stop  offset="1" style="stop-color:#717375"/>
				</linearGradient>
				<path class="st13" d="M610.4,175.8l0-14.5c7.4,5.4,15.4,8.1,24.3,8.1c11.8,0,17.8-4,17.7-11.9c0-2.2-0.5-4.2-1.5-5.7
					c-1-1.6-2.4-2.9-4.1-4.1c-1.7-1.2-3.8-2.3-6.1-3.2c-2.3-1-4.8-2-7.5-3c-3.7-1.5-7-3-9.8-4.5c-2.8-1.5-5.2-3.2-7.1-5.1
					c-1.9-1.9-3.3-4-4.3-6.4c-1-2.4-1.4-5.2-1.5-8.5c0-3.9,0.9-7.4,2.7-10.5c1.8-3,4.2-5.6,7.2-7.7c3-2.1,6.5-3.6,10.3-4.7
					c3.9-1,7.9-1.6,12-1.6c7.3,0,13.8,1.2,19.6,3.8l0,13.7c-6.2-4-13.3-6.1-21.4-6.1c-2.5,0-4.8,0.3-6.8,0.9c-2,0.6-3.8,1.4-5.2,2.4
					c-1.5,1-2.6,2.3-3.4,3.7c-0.8,1.5-1.2,3.1-1.2,4.8c0,2.2,0.4,4,1.2,5.5c0.8,1.5,2,2.8,3.5,3.9s3.4,2.2,5.6,3.1
					c2.2,0.9,4.7,1.9,7.5,3c3.7,1.4,7.1,2.9,10,4.4c3,1.5,5.5,3.2,7.6,5.1c2.1,1.9,3.7,4.1,4.8,6.5c1.1,2.5,1.7,5.4,1.7,8.8
					c0,4.2-0.9,7.8-2.7,10.9c-1.8,3.1-4.3,5.6-7.3,7.7c-3.1,2-6.6,3.5-10.6,4.5c-4,1-8.2,1.5-12.6,1.5
					C624.3,180.8,616.7,179.2,610.4,175.8z"/>
			</g>
			
				<rect x="-21.4" y="132" transform="matrix(1 -1.347084e-03 1.347084e-03 1 -0.1896 -1.692736e-02)" class="st14" width="17.5" height="17.5"/>
			<polygon class="st4" points="86.7,64.5 91.8,67.7 91.8,82.4 86.7,79.3 			"/>
			<polygon class="st4" points="574.8,178.9 579.9,182.1 593.4,182.1 588.3,178.9 			"/>
		</g>
		<polygon class="st4" points="86.8,161.1 91.9,164.2 91.9,177.6 86.8,174.5 		"/>
		<polygon class="st4" points="109,179.6 114.1,182.7 127.6,182.7 122.5,179.5 		"/>
		<polygon class="st4" points="165.4,179.5 170.5,182.6 184,182.6 178.9,179.5 		"/>
		<polygon class="st4" points="204.3,179.4 209.4,182.6 222.9,182.6 217.8,179.4 		"/>
		<polygon class="st4" points="245.1,179.4 250.2,182.5 263.7,182.5 258.6,179.4 		"/>
		<polygon class="st4" points="344.3,179.2 349.4,182.4 362.9,182.4 357.8,179.2 		"/>
		<polygon class="st4" points="386.9,179.2 392,182.3 405.5,182.3 400.4,179.2 		"/>
		<polygon class="st4" points="479.4,179.1 484.5,182.2 498,182.2 492.9,179 		"/>
		<polygon class="st4" points="662.2,96.4 667.4,99.6 667.4,113.2 662.3,110.1 		"/>
	</g>
	<g class="st15">
		<polygon class="st16" points="669.2,17.8 0.8,18 -2.5,15 669,12.2 		"/>
		
			<linearGradient id="SVGID_10_" gradientUnits="userSpaceOnUse" x1="2.2502" y1="3.1885" x2="670.9344" y2="3.1885" gradientTransform="matrix(1 -1.055451e-03 1.055451e-03 1 -5.0145 9.2204)">
			<stop  offset="0" style="stop-color:#717375"/>
			<stop  offset="8.043566e-02" style="stop-color:#76787A"/>
			<stop  offset="0.1739" style="stop-color:#838588"/>
			<stop  offset="0.2735" style="stop-color:#9A9C9F"/>
			<stop  offset="0.2839" style="stop-color:#9D9FA2"/>
			<stop  offset="0.3437" style="stop-color:#A0A2A5"/>
			<stop  offset="0.3942" style="stop-color:#ABADAF"/>
			<stop  offset="0.4412" style="stop-color:#BCBEC0"/>
			<stop  offset="0.4859" style="stop-color:#D5D6D7"/>
			<stop  offset="0.5" style="stop-color:#DEDFE0"/>
			<stop  offset="0.5413" style="stop-color:#C9CBCC"/>
			<stop  offset="0.6028" style="stop-color:#B1B3B5"/>
			<stop  offset="0.6594" style="stop-color:#A2A4A7"/>
			<stop  offset="0.706" style="stop-color:#9D9FA2"/>
			<stop  offset="0.717" style="stop-color:#95979A"/>
			<stop  offset="0.749" style="stop-color:#858789"/>
			<stop  offset="0.7889" style="stop-color:#797B7E"/>
			<stop  offset="0.8448" style="stop-color:#737577"/>
			<stop  offset="1" style="stop-color:#717375"/>
		</linearGradient>
		<polygon class="st17" points="665.9,14.8 -2.5,15 -2.8,9.3 665.7,9.1 		"/>
		<polygon class="st18" points="665.9,14.8 669.2,17.8 669,12.2 665.7,9.1 		"/>
	</g>
	<g class="st15">
		<polygon class="st16" points="362.5,243 -0.7,243.9 -2.5,241.4 362.5,238.3 		"/>
		
			<linearGradient id="SVGID_11_" gradientUnits="userSpaceOnUse" x1="-3.1604" y1="241.908" x2="360.1115" y2="241.908" gradientTransform="matrix(0.9999 1.111021e-02 -1.111021e-02 0.9999 3.4009 -5.3034)">
			<stop  offset="0" style="stop-color:#717375"/>
			<stop  offset="0.1189" style="stop-color:#757779"/>
			<stop  offset="0.2463" style="stop-color:#828486"/>
			<stop  offset="0.3772" style="stop-color:#97999C"/>
			<stop  offset="0.4095" style="stop-color:#9D9FA2"/>
			<stop  offset="0.6734" style="stop-color:#9FA1A4"/>
			<stop  offset="0.7918" style="stop-color:#A6A8AB"/>
			<stop  offset="0.8811" style="stop-color:#B3B4B6"/>
			<stop  offset="0.9554" style="stop-color:#C5C6C6"/>
			<stop  offset="1" style="stop-color:#D4D4D4"/>
		</linearGradient>
		<polygon class="st19" points="360.8,240.5 -2.5,241.4 -2.4,236.7 360.8,235.8 		"/>
		<polygon class="st18" points="360.8,240.5 362.5,243 362.5,238.3 360.8,235.8 		"/>
	</g>
	<g class="st15">
		<g>
			<path class="st4" d="M387.5,264.4l-1.9-3.1c4.1,2.6,10.1,2.5,14.2,2.5c4.4,0,7.8-0.9,10.1-2.8c2.3-1.8,3.4-4.4,3.4-7.7
				c0-2.9-0.8-5.2-2.3-6.9c-1.5-1.7-4.9-4.1-10-7c-5.7-3.3-9.4-6.1-10.9-8.4c-1.5-2.2-2.3-4.8-2.3-7.8c0-4,1.5-7.4,4.6-10.2
				c3.1-2.8,7.2-4.2,12.4-4.2c3.4,0,6.7,0.6,10.1,1.7l0,4.1c-3.3-1.5-6.9-2.2-10.6-2.2c-3.8,0-6.9,1-9.1,2.9
				c-2.2,1.9-3.4,4.4-3.4,7.4c0,2.9,0.8,5.2,2.3,6.9c1.5,1.7,4.9,4,10,7c5.3,3,8.8,5.6,10.6,8c1.8,2.3,2.6,5,2.6,8
				c0,4.3-1.5,7.9-4.5,10.6c-3,2.7-7.3,4.1-12.7,4.1c-1.9,0-4.2-0.3-6.7-0.9C390.8,265.8,388.9,265.1,387.5,264.4z"/>
			<path class="st4" d="M444.9,267.3c-5.9,0-10.5-1.9-14-5.8c-3.4-3.9-5.2-8.9-5.2-15.1c0-6.7,2-12.6,5.6-16.3
				c3.6-3.8,8-5.1,13.9-5.1c5.8,0,10.3,1.9,13.6,5.6c3.3,3.8,5,9,5,15.6c0,6.3-1.7,11.4-5.1,15.3
				C455.4,265.3,450.8,267.3,444.9,267.3z M445.1,228.2c-4.8,0-8.5,1.6-11.4,4.8c-2.8,3.2-4.2,7.7-4.2,13.4c0,5.3,1.4,9.5,4.2,12.7
				c2.8,3.2,6.6,5.5,11.3,4.8c5.2-0.8,7.3-1.8,10.9-4.8c3.2-2.6,3.7-7.4,4.3-13.1c0.6-5.7-1.3-10.2-3.9-13.2
				C453.6,229.8,449.9,228.2,445.1,228.2z"/>
			<path class="st4" d="M489.4,210.3c-1-0.8-2.4-1.1-4.4-1.1c-5,0-7.4,3.3-7.4,10l0,6.7l10.7,0l0,3.3l-10.7,0l0,37.1l-3.6,0l0-37.1
				l-7.3,0l-1.9-3.1l9.2-0.2l0-7c0-4.3,2.2-6.8,3.2-9.7c1.2-3.3,4.8-3.3,8-3.3c1.7,0,3.1,0.2,4.3,0.7L489.4,210.3z"/>
			<path class="st4" d="M512.2,265.6c-1.9,0.9-3.7,1.3-5.3,1.3c-6,0-9-3.6-9-10.7l0-27.1l-7.3,0l-1.9-3.1l9.2-0.2l0-10.5
				c0.6-0.2,1.4-4.9,1.7-4.4c0.7,1.4,1.3,2.7,1.9,3.1l0,11.7l10.6,0l0,3.3l-10.6,0l0,26.7c0,2.8,0.4,4.8,1.3,6.1
				c0.9,1.2,2.3,1.2,4.4,1.2c1.5,0,1.9-0.4,3.6-1.4L512.2,265.6z"/>
			<path class="st4" d="M554.4,266.1l-3.4,0l-8.8-30.4c-0.2-0.8-0.4-2-0.6-3.4l-0.2,0c-0.1,0.6-0.3,1.7-0.8,3.3l-9.8,30.5l-3.4,0
				l-10.2-43.5l1.9,3.1l9.4,32.2c0.2,0.8,0.4,2,0.6,3.4l0.3,0c0.1-0.8,0.3-1.9,0.7-3.4l10.8-35.4l1.9,3.1l9.2,32.2
				c0.2,0.8,0.4,1.9,0.6,3.4l0.3,0c0-0.8,0.2-1.9,0.7-3.4l11.3-35.4l1.9,3.1L554.4,266.1z"/>
			<path class="st4" d="M599,266.1l0-8.1l-0.2,0c-1.3,2.8-3.2,5-5.6,6.6c-2.5,1.6-5.2,2.5-8.2,2.5c-3.8,0-6.9-1.1-9.1-3.2
				c-2.2-2.2-3.4-4.9-3.4-8.2c0-7,4.2-12.6,13.8-13.3L599,241c0-8.7-3.3-13-9.8-13c-4.4,0-8.8,1.8-13,5.4l-1.9-3.1
				c1.5-1.2,5.3-4.8,8.4-5.4c2.7-0.5,4.6-0.2,6.8-0.2c4.2,0,7.4,1.3,9.6,3.9c2.3,2.6,3.4,6.3,3.4,11.2l0,26.3L599,266.1z M587.8,246
				c-4.2,0.6-7.2,1.6-8.9,2.9c-1.7,1.4-2.6,3.6-2.6,6.6c0,2.4,0.8,4.4,2.4,5.9c1.6,1.5,3.8,2.3,6.6,2.3c3.9,0,7.9-4.9,10.5-7.8
				c2.6-2.9,3.1-3.2,3.1-7.7l0-3.9L587.8,246z"/>
			<path class="st4" d="M633.8,229.4c-1.2-0.9-2.6-1.3-4.3-1.3c-3.2,0-5.8,1.7-8,4.9c-2.2,3.3-3.2,8-3.2,14l0,19l-3.5,0l1.6-43.5
				l1.9,3.1l0,8.9l0-2.1c0.9-3.1,2.9-5,4.9-6.7c2-1.7,4-0.9,6.6-0.9c1.5,0,2.8,0.2,4,0.7L633.8,229.4z"/>
			<path class="st4" d="M640.6,246c0,5.5,1.3,9.9,3.9,13c2.6,3.1,6.1,5,10.6,4.7c4.2-0.3,7.6-2.2,11.9-5.5l1.3,4.3
				c-4.2,3-8.8,4.5-14,4.5c-5.2,0-9.4-1.9-12.6-5.6c-3.2-3.7-4.8-9-4.8-15.8c0-5.9,1.4-11.1,4.7-15.2c3.3-4,6.7-6.2,12.1-6.2
				c5,0,10.1,2.2,12.8,5.7c2.7,3.5,4,8.3,4,14.4l0,1.6L640.6,246z M666.7,242.6c-0.2-4.7-1.3-8.3-3.4-10.8c-2.1-2.6-4.9-3.9-8.6-3.9
				c-3.8,0-6.9,1.3-9.4,3.8c-2.5,2.5-4,6.2-4.6,10.9L666.7,242.6z"/>
		</g>
		<g>
			
				<linearGradient id="SVGID_12_" gradientUnits="userSpaceOnUse" x1="389.6895" y1="232.7354" x2="419.4972" y2="232.7354" gradientTransform="matrix(1 -1.346660e-03 1.346660e-03 1 -4.443 2.781)">
				<stop  offset="0" style="stop-color:#717375"/>
				<stop  offset="8.043566e-02" style="stop-color:#76787A"/>
				<stop  offset="0.1739" style="stop-color:#838588"/>
				<stop  offset="0.2735" style="stop-color:#9A9C9F"/>
				<stop  offset="0.2839" style="stop-color:#9D9FA2"/>
				<stop  offset="0.3437" style="stop-color:#A0A2A5"/>
				<stop  offset="0.3942" style="stop-color:#ABADAF"/>
				<stop  offset="0.4412" style="stop-color:#BCBEC0"/>
				<stop  offset="0.4859" style="stop-color:#D5D6D7"/>
				<stop  offset="0.5" style="stop-color:#DEDFE0"/>
				<stop  offset="0.5413" style="stop-color:#C9CBCC"/>
				<stop  offset="0.6028" style="stop-color:#B1B3B5"/>
				<stop  offset="0.6594" style="stop-color:#A2A4A7"/>
				<stop  offset="0.706" style="stop-color:#9D9FA2"/>
				<stop  offset="0.717" style="stop-color:#95979A"/>
				<stop  offset="0.749" style="stop-color:#858789"/>
				<stop  offset="0.7889" style="stop-color:#797B7E"/>
				<stop  offset="0.8448" style="stop-color:#737577"/>
				<stop  offset="1" style="stop-color:#717375"/>
			</linearGradient>
			<path class="st20" d="M385.6,261.2l0-4.5c4.1,2.6,8.2,3.9,12.3,3.8c4.4,0,7.8-0.9,10.1-2.8c2.3-1.8,3.4-4.4,3.4-7.7
				c0-2.9-0.8-5.2-2.3-6.9c-1.5-1.7-4.9-4.1-10-7c-5.7-3.3-9.4-6.1-10.9-8.4c-1.5-2.2-2.3-4.8-2.3-7.8c0-4,1.5-7.4,4.6-10.2
				c3.1-2.8,7.2-4.2,12.4-4.2c3.4,0,6.7,0.6,10.1,1.7l0,4.1c-3.3-1.5-6.9-2.2-10.6-2.2c-3.8,0-6.9,1-9.1,2.9
				c-2.2,1.9-3.4,4.4-3.4,7.4c0,2.9,0.8,5.2,2.3,6.9c1.5,1.7,4.9,4,10,7c5.3,3,8.8,5.6,10.6,8c1.8,2.3,2.6,5,2.6,8
				c0,4.3-1.5,7.9-4.5,10.6c-3,2.7-7.3,4.1-12.7,4.1c-1.9,0-4.2-0.3-6.7-0.9C388.9,262.7,386.9,262,385.6,261.2z"/>
			
				<linearGradient id="SVGID_13_" gradientUnits="userSpaceOnUse" x1="427.8958" y1="240.7984" x2="466.1013" y2="240.7984" gradientTransform="matrix(1 -1.346660e-03 1.346660e-03 1 -4.443 2.781)">
				<stop  offset="0" style="stop-color:#717375"/>
				<stop  offset="8.043566e-02" style="stop-color:#76787A"/>
				<stop  offset="0.1739" style="stop-color:#838588"/>
				<stop  offset="0.2735" style="stop-color:#9A9C9F"/>
				<stop  offset="0.2839" style="stop-color:#9D9FA2"/>
				<stop  offset="0.3437" style="stop-color:#A0A2A5"/>
				<stop  offset="0.3942" style="stop-color:#ABADAF"/>
				<stop  offset="0.4412" style="stop-color:#BCBEC0"/>
				<stop  offset="0.4859" style="stop-color:#D5D6D7"/>
				<stop  offset="0.5" style="stop-color:#DEDFE0"/>
				<stop  offset="0.5413" style="stop-color:#C9CBCC"/>
				<stop  offset="0.6028" style="stop-color:#B1B3B5"/>
				<stop  offset="0.6594" style="stop-color:#A2A4A7"/>
				<stop  offset="0.706" style="stop-color:#9D9FA2"/>
				<stop  offset="0.717" style="stop-color:#95979A"/>
				<stop  offset="0.749" style="stop-color:#858789"/>
				<stop  offset="0.7889" style="stop-color:#797B7E"/>
				<stop  offset="0.8448" style="stop-color:#737577"/>
				<stop  offset="1" style="stop-color:#717375"/>
			</linearGradient>
			<path class="st21" d="M442.9,264.2c-5.9,0-10.5-1.9-14-5.8c-3.4-3.9-5.2-8.9-5.2-15.1c0-6.7,1.8-11.9,5.4-15.7
				c3.6-3.8,8.3-5.7,14.2-5.7c5.8,0,10.3,1.9,13.6,5.6c3.3,3.8,5,9,5,15.6c0,6.3-1.7,11.4-5.1,15.3
				C453.5,262.2,448.8,264.1,442.9,264.2z M443.2,225.1c-4.8,0-8.5,1.6-11.4,4.8c-2.8,3.2-4.2,7.7-4.2,13.4c0,5.3,1.4,9.5,4.2,12.7
				c2.8,3.2,6.5,4.8,11.3,4.8c4.9,0,8.6-1.6,11.2-4.7c2.6-3.2,3.9-7.5,3.9-13.1c0-5.8-1.3-10.2-3.9-13.2
				C451.6,226.6,447.9,225.1,443.2,225.1z"/>
			
				<linearGradient id="SVGID_14_" gradientUnits="userSpaceOnUse" x1="468.8621" y1="230.7834" x2="491.6126" y2="230.7834" gradientTransform="matrix(1 -1.346660e-03 1.346660e-03 1 -4.443 2.781)">
				<stop  offset="0" style="stop-color:#717375"/>
				<stop  offset="8.043566e-02" style="stop-color:#76787A"/>
				<stop  offset="0.1739" style="stop-color:#838588"/>
				<stop  offset="0.2735" style="stop-color:#9A9C9F"/>
				<stop  offset="0.2839" style="stop-color:#9D9FA2"/>
				<stop  offset="0.3437" style="stop-color:#A0A2A5"/>
				<stop  offset="0.3942" style="stop-color:#ABADAF"/>
				<stop  offset="0.4412" style="stop-color:#BCBEC0"/>
				<stop  offset="0.4859" style="stop-color:#D5D6D7"/>
				<stop  offset="0.5" style="stop-color:#DEDFE0"/>
				<stop  offset="0.5413" style="stop-color:#C9CBCC"/>
				<stop  offset="0.6028" style="stop-color:#B1B3B5"/>
				<stop  offset="0.6594" style="stop-color:#A2A4A7"/>
				<stop  offset="0.706" style="stop-color:#9D9FA2"/>
				<stop  offset="0.717" style="stop-color:#95979A"/>
				<stop  offset="0.749" style="stop-color:#858789"/>
				<stop  offset="0.7889" style="stop-color:#797B7E"/>
				<stop  offset="0.8448" style="stop-color:#737577"/>
				<stop  offset="1" style="stop-color:#717375"/>
			</linearGradient>
			<path class="st22" d="M487.4,207.2c-1-0.8-2.4-1.1-4.4-1.1c-5,0-7.4,3.3-7.4,10l0,6.7l10.7,0l0,3.3l-10.7,0l0,37.1l-3.6,0l0-37.1
				l-7.3,0l0-3.3l7.3,0l0-7c0-4.3,1.1-7.5,3.2-9.7c2.1-2.2,4.8-3.3,8-3.3c1.7,0,3.1,0.2,4.3,0.7L487.4,207.2z"/>
			
				<linearGradient id="SVGID_15_" gradientUnits="userSpaceOnUse" x1="492.8344" y1="235.3374" x2="514.3631" y2="235.3374" gradientTransform="matrix(1 -1.346660e-03 1.346660e-03 1 -4.443 2.781)">
				<stop  offset="0" style="stop-color:#717375"/>
				<stop  offset="8.043566e-02" style="stop-color:#76787A"/>
				<stop  offset="0.1739" style="stop-color:#838588"/>
				<stop  offset="0.2735" style="stop-color:#9A9C9F"/>
				<stop  offset="0.2839" style="stop-color:#9D9FA2"/>
				<stop  offset="0.3437" style="stop-color:#A0A2A5"/>
				<stop  offset="0.3942" style="stop-color:#ABADAF"/>
				<stop  offset="0.4412" style="stop-color:#BCBEC0"/>
				<stop  offset="0.4859" style="stop-color:#D5D6D7"/>
				<stop  offset="0.5" style="stop-color:#DEDFE0"/>
				<stop  offset="0.5413" style="stop-color:#C9CBCC"/>
				<stop  offset="0.6028" style="stop-color:#B1B3B5"/>
				<stop  offset="0.6594" style="stop-color:#A2A4A7"/>
				<stop  offset="0.706" style="stop-color:#9D9FA2"/>
				<stop  offset="0.717" style="stop-color:#95979A"/>
				<stop  offset="0.749" style="stop-color:#858789"/>
				<stop  offset="0.7889" style="stop-color:#797B7E"/>
				<stop  offset="0.8448" style="stop-color:#737577"/>
				<stop  offset="1" style="stop-color:#717375"/>
			</linearGradient>
			<path class="st23" d="M510.3,262.5c-1.9,0.9-3.7,1.3-5.3,1.3c-6,0-9-3.6-9-10.7l0-27.1l-7.3,0l0-3.3l7.3,0l0-10.5
				c0.6-0.2,1.2-0.4,1.8-0.6c0.6-0.2,1.2-0.4,1.8-0.6l0,11.7l10.6,0l0,3.3l-10.6,0l0,26.7c0,2.8,0.4,4.8,1.3,6.1
				c0.9,1.2,2.4,1.9,4.5,1.9c1.5,0,3.1-0.5,4.8-1.5L510.3,262.5z"/>
			
				<linearGradient id="SVGID_16_" gradientUnits="userSpaceOnUse" x1="517.3596" y1="240.7981" x2="569.1284" y2="240.7981" gradientTransform="matrix(1 -1.346660e-03 1.346660e-03 1 -4.443 2.781)">
				<stop  offset="0" style="stop-color:#717375"/>
				<stop  offset="8.043566e-02" style="stop-color:#76787A"/>
				<stop  offset="0.1739" style="stop-color:#838588"/>
				<stop  offset="0.2735" style="stop-color:#9A9C9F"/>
				<stop  offset="0.2839" style="stop-color:#9D9FA2"/>
				<stop  offset="0.3437" style="stop-color:#A0A2A5"/>
				<stop  offset="0.3942" style="stop-color:#ABADAF"/>
				<stop  offset="0.4412" style="stop-color:#BCBEC0"/>
				<stop  offset="0.4859" style="stop-color:#D5D6D7"/>
				<stop  offset="0.5" style="stop-color:#DEDFE0"/>
				<stop  offset="0.5413" style="stop-color:#C9CBCC"/>
				<stop  offset="0.6028" style="stop-color:#B1B3B5"/>
				<stop  offset="0.6594" style="stop-color:#A2A4A7"/>
				<stop  offset="0.706" style="stop-color:#9D9FA2"/>
				<stop  offset="0.717" style="stop-color:#95979A"/>
				<stop  offset="0.749" style="stop-color:#858789"/>
				<stop  offset="0.7889" style="stop-color:#797B7E"/>
				<stop  offset="0.8448" style="stop-color:#737577"/>
				<stop  offset="1" style="stop-color:#717375"/>
			</linearGradient>
			<path class="st24" d="M552.5,263l-3.4,0l-8.8-30.4c-0.2-0.8-0.4-2-0.6-3.4l-0.2,0c-0.1,0.6-0.3,1.7-0.8,3.3l-9.8,30.5l-3.4,0
				l-12.2-40.4l4,0l9.4,32.2c0.2,0.8,0.4,2,0.6,3.4l0.3,0c0.1-0.8,0.3-1.9,0.7-3.4l10.2-32.2l2.5,0l9.2,32.2
				c0.2,0.8,0.4,1.9,0.6,3.4l0.3,0c0-0.8,0.2-1.9,0.7-3.4l9.5-32.2l3.7,0L552.5,263z"/>
			
				<linearGradient id="SVGID_17_" gradientUnits="userSpaceOnUse" x1="574.7272" y1="240.7983" x2="604.7715" y2="240.7983" gradientTransform="matrix(1 -1.346660e-03 1.346660e-03 1 -4.443 2.781)">
				<stop  offset="0" style="stop-color:#717375"/>
				<stop  offset="8.043566e-02" style="stop-color:#76787A"/>
				<stop  offset="0.1739" style="stop-color:#838588"/>
				<stop  offset="0.2735" style="stop-color:#9A9C9F"/>
				<stop  offset="0.2839" style="stop-color:#9D9FA2"/>
				<stop  offset="0.3437" style="stop-color:#A0A2A5"/>
				<stop  offset="0.3942" style="stop-color:#ABADAF"/>
				<stop  offset="0.4412" style="stop-color:#BCBEC0"/>
				<stop  offset="0.4859" style="stop-color:#D5D6D7"/>
				<stop  offset="0.5" style="stop-color:#DEDFE0"/>
				<stop  offset="0.5413" style="stop-color:#C9CBCC"/>
				<stop  offset="0.6028" style="stop-color:#B1B3B5"/>
				<stop  offset="0.6594" style="stop-color:#A2A4A7"/>
				<stop  offset="0.706" style="stop-color:#9D9FA2"/>
				<stop  offset="0.717" style="stop-color:#95979A"/>
				<stop  offset="0.749" style="stop-color:#858789"/>
				<stop  offset="0.7889" style="stop-color:#797B7E"/>
				<stop  offset="0.8448" style="stop-color:#737577"/>
				<stop  offset="1" style="stop-color:#717375"/>
			</linearGradient>
			<path class="st25" d="M597.1,263l0-8.1l-0.2,0c-1.3,2.8-3.2,5-5.6,6.6c-2.5,1.6-5.2,2.5-8.2,2.5c-3.8,0-6.9-1.1-9.1-3.2
				c-2.2-2.2-3.4-4.9-3.4-8.2c0-7,4.7-11.3,14-12.8l12.4-1.9c0-8.7-3.3-13-9.8-13c-4.4,0-8.8,1.8-13,5.4l0-4.4
				c1.5-1.2,3.5-2.2,6.1-3c2.6-0.8,5-1.3,7.2-1.3c4.2,0,7.4,1.3,9.6,3.9c2.3,2.6,3.4,6.3,3.4,11.2l0,26.3L597.1,263z M585.9,242.9
				c-4.2,0.6-7.2,1.6-8.9,2.9c-1.7,1.4-2.6,3.6-2.6,6.6c0,2.4,0.8,4.4,2.4,5.9c1.6,1.5,3.8,2.3,6.6,2.3c3.9,0,7.1-1.4,9.7-4.3
				c2.6-2.9,3.9-6.6,3.8-11.1l0-3.9L585.9,242.9z"/>
			
				<linearGradient id="SVGID_18_" gradientUnits="userSpaceOnUse" x1="616.9153" y1="240.4038" x2="635.9587" y2="240.4038" gradientTransform="matrix(1 -1.346660e-03 1.346660e-03 1 -4.443 2.781)">
				<stop  offset="0" style="stop-color:#717375"/>
				<stop  offset="8.043566e-02" style="stop-color:#76787A"/>
				<stop  offset="0.1739" style="stop-color:#838588"/>
				<stop  offset="0.2735" style="stop-color:#9A9C9F"/>
				<stop  offset="0.2839" style="stop-color:#9D9FA2"/>
				<stop  offset="0.3437" style="stop-color:#A0A2A5"/>
				<stop  offset="0.3942" style="stop-color:#ABADAF"/>
				<stop  offset="0.4412" style="stop-color:#BCBEC0"/>
				<stop  offset="0.4859" style="stop-color:#D5D6D7"/>
				<stop  offset="0.5" style="stop-color:#DEDFE0"/>
				<stop  offset="0.5413" style="stop-color:#C9CBCC"/>
				<stop  offset="0.6028" style="stop-color:#B1B3B5"/>
				<stop  offset="0.6594" style="stop-color:#A2A4A7"/>
				<stop  offset="0.706" style="stop-color:#9D9FA2"/>
				<stop  offset="0.717" style="stop-color:#95979A"/>
				<stop  offset="0.749" style="stop-color:#858789"/>
				<stop  offset="0.7889" style="stop-color:#797B7E"/>
				<stop  offset="0.8448" style="stop-color:#737577"/>
				<stop  offset="1" style="stop-color:#717375"/>
			</linearGradient>
			<path class="st26" d="M631.8,226.3c-1.2-0.9-2.6-1.3-4.3-1.3c-3.2,0-5.8,1.7-8,4.9c-2.2,3.3-3.2,8-3.2,14l0,19l-3.5,0l-0.1-40.4
				l3.5,0l0,8.9l0.2,0c0.9-3.1,2.4-5.5,4.4-7.2c2-1.7,4.3-2.6,6.9-2.6c1.5,0,2.8,0.2,4,0.7L631.8,226.3z"/>
			
				<linearGradient id="SVGID_19_" gradientUnits="userSpaceOnUse" x1="639.035" y1="240.7983" x2="672.7066" y2="240.7983" gradientTransform="matrix(1 -1.346660e-03 1.346660e-03 1 -4.443 2.781)">
				<stop  offset="0" style="stop-color:#717375"/>
				<stop  offset="8.043566e-02" style="stop-color:#76787A"/>
				<stop  offset="0.1739" style="stop-color:#838588"/>
				<stop  offset="0.2735" style="stop-color:#9A9C9F"/>
				<stop  offset="0.2839" style="stop-color:#9D9FA2"/>
				<stop  offset="0.3437" style="stop-color:#A0A2A5"/>
				<stop  offset="0.3942" style="stop-color:#ABADAF"/>
				<stop  offset="0.4412" style="stop-color:#BCBEC0"/>
				<stop  offset="0.4859" style="stop-color:#D5D6D7"/>
				<stop  offset="0.5" style="stop-color:#DEDFE0"/>
				<stop  offset="0.5413" style="stop-color:#C9CBCC"/>
				<stop  offset="0.6028" style="stop-color:#B1B3B5"/>
				<stop  offset="0.6594" style="stop-color:#A2A4A7"/>
				<stop  offset="0.706" style="stop-color:#9D9FA2"/>
				<stop  offset="0.717" style="stop-color:#95979A"/>
				<stop  offset="0.749" style="stop-color:#858789"/>
				<stop  offset="0.7889" style="stop-color:#797B7E"/>
				<stop  offset="0.8448" style="stop-color:#737577"/>
				<stop  offset="1" style="stop-color:#717375"/>
			</linearGradient>
			<path class="st27" d="M638.7,242.9c0,5.5,1.3,9.9,3.9,13c2.6,3.1,6.1,4.7,10.6,4.7c4.5,0,8.9-1.7,13.2-5l0,3.9
				c-4.2,3-8.8,4.5-14,4.5c-5.2,0-9.4-1.9-12.6-5.6c-3.2-3.7-4.8-9-4.8-15.8c0-5.9,1.7-10.9,5-14.9c3.3-4,7.7-6.1,13.1-6.1
				c5,0,8.9,1.7,11.6,5.3c2.7,3.5,4,8.3,4,14.4l0,1.6L638.7,242.9z M664.8,239.5c-0.2-4.7-1.3-8.3-3.4-10.8
				c-2.1-2.6-4.9-3.9-8.6-3.9c-3.8,0-6.9,1.3-9.4,3.8c-2.5,2.5-4,6.2-4.6,10.9L664.8,239.5z"/>
		</g>
		<polygon class="st4" points="413,211.5 414.9,214.6 414.9,210.5 413,207.4 		"/>
		<polygon class="st18" points="487.4,203.4 489.4,206.6 489.4,210.3 487.4,207.2 		"/>
		<polygon class="st18" points="486.3,226 488.2,229.2 488.2,225.9 486.3,222.7 		"/>
		<polygon class="st4" points="472,263.1 475.7,263.1 477.6,266.2 474,266.2 		"/>
		<polygon class="st18" points="510.3,262.5 512.2,265.6 512.2,262.3 510.3,259.1 		"/>
		<polygon class="st18" points="510.2,222.7 510.2,226 512.2,229.1 512.2,225.8 		"/>
		<polygon class="st28" points="525.5,263.1 527.4,266.2 530.8,266.2 528.8,263 		"/>
		<polygon class="st28" points="549.2,263 551.1,266.1 554.5,266.1 552.6,263 		"/>
		<polygon class="st28" points="597.1,263 599,266.1 602.6,266.1 600.7,263 		"/>
		<polygon class="st28" points="612.8,262.9 614.8,266.1 618.4,266.1 616.5,262.9 		"/>
		<polygon class="st28" points="631.8,222.5 633.7,225.6 633.8,229.4 631.8,226.3 		"/>
		<path class="st28" d="M668.6,242.8l1.9,3.1c0.2-6.2-0.8-11.7-4-16C668.6,234.8,668.7,239.1,668.6,242.8z"/>
		<polygon class="st28" points="666.4,259.4 668.3,262.5 668.3,258.7 666.4,255.5 		"/>
	</g>
</g>
</svg>
